<svg width="120" height="114" viewBox="0 0 120 114" fill="none" xmlns="http://www.w3.org/2000/svg">
<g clip-path="url(#clip0_145_275)">
<mask id="mask0_145_275" style="mask-type:luminance" maskUnits="userSpaceOnUse" x="0" y="0" width="120" height="114">
<path d="M120 0H0V114H120V0Z" fill="white"/>
</mask>
<g mask="url(#mask0_145_275)">
<path d="M4.0946 81.8798C2.39413 84.1821 4.05295 87.4241 6.93163 87.4241H113.069C115.947 87.4241 117.606 84.1821 115.906 81.8798L113.304 78.3567C110.141 74.0742 108.437 68.9051 108.437 63.5976V48.0152C108.437 21.4971 86.7505 0 60 0C33.2494 0 11.5637 21.4971 11.5637 48.0152V63.5976C11.5637 68.9051 9.85888 74.0742 6.69633 78.3567L4.0946 81.8798Z" fill="black"/>
<path d="M74.4055 94.7786H43.2057V99.6469C43.2057 107.574 50.19 114 58.8055 114C67.4215 114 74.4055 107.574 74.4055 99.6469V94.7786Z" fill="black"/>
</g>
</g>
<defs>
<clipPath id="clip0_145_275">
<rect width="120" height="114" fill="white"/>
</clipPath>
</defs>
</svg>
