<svg width="28" height="28" viewBox="0 0 28 28" fill="none" xmlns="http://www.w3.org/2000/svg">
<path d="M21 0C23.2091 0 25 1.79086 25 4V24C25 26.2091 23.2091 28 21 28H8C5.79086 28 4 26.2091 4 24V4C4 2.59323 4.72621 1.35605 5.82419 0.642937C6.37219 0.287025 7 0.762512 7 1.41595V8.07031C7 9.02406 8.20785 9.43632 8.79102 8.68164L10.209 6.84766C10.6093 6.32967 11.3907 6.32967 11.791 6.84766L13.209 8.68164C13.7921 9.43632 15 9.02406 15 8.07031V1C15 0.447715 15.4477 0 16 0H21Z" fill="white"/>
</svg>
