<svg width="28" height="28" viewBox="0 0 28 28" fill="none" xmlns="http://www.w3.org/2000/svg">
<path d="M9.24504 13.4091L6.67273 3.95455H26C26.5523 3.95455 27 4.40226 27 4.95454V12.4091C27 12.9614 26.5523 13.4091 26 13.4091H9.24504Z" fill="white"/>
<path d="M1 1H4.99732C5.43219 1 5.81721 1.28104 5.94974 1.69522L6.67273 3.95455M6.67273 3.95455L9.24504 13.4091M6.67273 3.95455H26C26.5523 3.95455 27 4.40226 27 4.95454V12.4091C27 12.9614 26.5523 13.4091 26 13.4091H9.24504M9.24504 13.4091L10.2776 17.949C10.3811 18.4043 10.7858 18.7273 11.2527 18.7273H27" stroke="white" stroke-width="2" stroke-linecap="round"/>
<circle cx="11.6363" cy="24.6363" r="2.36364" fill="white"/>
<circle cx="24.6363" cy="24.6363" r="2.36364" fill="white"/>
</svg>
