<svg width="28" height="28" viewBox="0 0 28 28" fill="none" xmlns="http://www.w3.org/2000/svg">
<path d="M12.6775 2.49984C13.4334 1.83345 14.5671 1.83332 15.323 2.49984L27.5115 13.2489C28.3779 14.013 27.8377 15.4432 26.6824 15.4432C25.9901 15.4432 25.4287 16.0039 25.4285 16.6961V24.3338C25.4283 25.4382 24.5329 26.3338 23.4285 26.3338H4.57103C3.46676 26.3336 2.57123 25.4381 2.57103 24.3338V16.6961C2.57079 16.0039 2.00945 15.4432 1.31712 15.4432C0.162225 15.4428 -0.37794 14.013 0.488022 13.2489L12.6775 2.49984ZM9.99974 22.3338C9.44757 22.334 8.99974 22.7816 8.99974 23.3338C8.99994 23.8859 9.44769 24.3337 9.99974 24.3338H17.9997C18.5519 24.3338 18.9995 23.8859 18.9997 23.3338C18.9997 22.7815 18.552 22.3338 17.9997 22.3338H9.99974Z" fill="white"/>
</svg>
