<svg width="140" height="88" viewBox="0 0 140 88" fill="none" xmlns="http://www.w3.org/2000/svg">
<path d="M6.64433 88C4.14713 88 2.31883 87.1988 1.15941 85.5964C0 83.9494 -0.289853 81.5458 0.289853 78.3854L14.1359 1.91024e-05H18.6844L4.83832 78.519C4.52617 80.0769 4.68224 81.2787 5.30654 82.1244C5.93084 82.9702 6.97877 83.393 8.45034 83.393C9.2976 83.393 10.1003 83.2817 10.8583 83.0592C11.6164 82.7921 12.3076 82.5028 12.9319 82.1912C13.5562 81.8351 13.8684 81.6571 13.8684 81.6571L13.0657 86.264C13.0657 86.264 12.709 86.4421 11.9955 86.7982C11.3266 87.1098 10.5016 87.3768 9.52057 87.5994C8.58412 87.8665 7.62537 88 6.64433 88ZM4.16943 22.7678L4.9721 18.2276H23.8349L23.0322 22.7678H4.16943Z" fill="#00B944"/>
<path d="M25.1026 88C21.7582 88 19.3501 86.954 17.8786 84.8619C16.4516 82.7699 16.1618 79.3647 17.009 74.6464L24.7682 30.8468C25.5708 26.173 26.9532 22.7901 28.9153 20.698C30.922 18.606 33.7313 17.56 37.3433 17.56C40.6878 17.56 43.0735 18.606 44.5005 20.698C45.972 22.7901 46.2842 26.173 45.4369 30.8468L37.6778 74.6464C36.8751 79.3647 35.4704 82.7699 33.4638 84.8619C31.5017 86.954 28.7146 88 25.1026 88ZM25.7715 83.7269C27.7782 83.7269 29.3389 83.0814 30.4538 81.7906C31.6132 80.4552 32.4604 78.2964 32.9955 75.3141L40.9554 30.2458C41.4905 27.2635 41.4013 25.127 40.6878 23.8361C39.9743 22.5008 38.6142 21.8331 36.6076 21.8331C34.6455 21.8331 33.0847 22.5008 31.9253 23.8361C30.8105 25.127 29.9855 27.2635 29.4504 30.2458L21.4906 75.3141C20.9555 78.2964 21.0447 80.4552 21.7582 81.7906C22.4716 83.0814 23.8094 83.7269 25.7715 83.7269Z" fill="#00B944"/>
<path d="M51.8468 88C49.3496 88 47.5213 87.1988 46.3619 85.5964C45.2025 83.9494 44.9126 81.5458 45.4923 78.3854L59.3384 1.91024e-05H63.8869L50.0408 78.519C49.7286 80.0769 49.8847 81.2787 50.509 82.1244C51.1333 82.9702 52.1812 83.393 53.6528 83.393C54.5001 83.393 55.3027 83.2817 56.0608 83.0592C56.8189 82.7921 57.5101 82.5028 58.1344 82.1912C58.7587 81.8351 59.0708 81.6571 59.0708 81.6571L58.2682 86.264C58.2682 86.264 57.9114 86.4421 57.1979 86.7982C56.529 87.1098 55.7041 87.3768 54.723 87.5994C53.7866 87.8665 52.8278 88 51.8468 88ZM49.3719 22.7678L50.1746 18.2276H69.0373L68.2347 22.7678H49.3719Z" fill="#00B944"/>
<path d="M67.4957 88C64.8648 88 62.9696 87.0653 61.8102 85.1958C60.6062 83.3263 60.3609 80.4775 61.0744 76.6495L64.8871 55.0167C65.556 51.1887 66.7823 48.2954 68.566 46.3369C70.3943 44.3339 72.78 43.3323 75.7231 43.3323C77.4176 43.3323 78.7777 43.8442 79.8034 44.868C80.829 45.8473 81.3864 47.3384 81.4756 49.3414L84.82 30.3126C85.3552 27.2858 85.2883 25.127 84.6194 23.8361C83.9505 22.5008 82.6796 21.8331 80.8067 21.8331C79.2014 21.8331 77.9305 22.2782 76.994 23.1685C76.1021 24.0142 75.411 25.1047 74.9204 26.4401C74.4299 27.7754 73.9617 29.4891 73.5158 31.5812C73.1144 33.6287 72.9138 34.6525 72.9138 34.6525L68.8335 33.7178C68.8335 33.7178 69.1011 32.4937 69.6362 30.0455C70.2159 27.5529 70.8848 25.4386 71.6429 23.7026C72.4455 21.9221 73.6273 20.4532 75.188 19.2959C76.7487 18.1386 78.8446 17.56 81.4756 17.56C84.6863 17.56 87.0051 18.5837 88.4321 20.6313C89.859 22.6788 90.2158 25.7056 89.5023 29.7117L79.3351 87.3323H75.1211L76.5927 79.0531L76.7264 80.522H76.3251C75.5224 83.0147 74.3853 84.8842 72.9138 86.1305C71.4868 87.3768 69.6808 88 67.4957 88ZM69.9038 83.5933C71.6875 83.5933 73.159 82.9479 74.3184 81.6571C75.5224 80.3662 76.3697 78.2742 76.8602 75.3809L80.4054 55.5508C80.8959 52.6576 80.7621 50.5878 80.004 49.3414C79.2905 48.0951 78.0865 47.4719 76.392 47.4719C74.4745 47.4719 72.9361 48.0728 71.7766 49.2747C70.6618 50.4765 69.8592 52.435 69.3686 55.1502L65.6897 75.8483C65.2438 78.5635 65.3553 80.5443 66.0242 81.7906C66.7377 82.9924 68.0309 83.5933 69.9038 83.5933Z" fill="#00B944"/>
<path d="M94.2013 63.1624L95.1377 53.8816L113.398 18.2276H117.813L94.2013 63.1624ZM85.5057 87.3323L100.957 0H105.572L90.121 87.3323H85.5057ZM100.957 87.3323L100.823 49.742L104.97 41.1958L105.305 87.3323H100.957Z" fill="#00B944"/>
<path d="M119.641 88C116.386 88 114.022 86.9317 112.551 84.7952C111.079 82.6586 110.767 79.1867 111.614 74.3794L119.307 30.8468C120.109 26.3065 121.536 22.9681 123.588 20.8316C125.639 18.6505 128.426 17.56 131.949 17.56C135.159 17.56 137.434 18.5837 138.771 20.6313C140.109 22.6788 140.354 26.1507 139.507 31.0471L135.427 53.8149H117.768L118.504 49.6085H131.815L135.159 30.8468C135.739 27.5084 135.695 25.1715 135.026 23.8361C134.357 22.5008 133.086 21.8331 131.213 21.8331C129.251 21.8331 127.668 22.523 126.464 23.9029C125.304 25.2383 124.435 27.6419 123.855 31.1138L116.096 74.78C115.516 78.0739 115.583 80.3885 116.297 81.7238C117.055 83.0592 118.393 83.7269 120.31 83.7269C121.96 83.7269 123.32 83.2595 124.39 82.3247C125.46 81.39 126.263 80.0101 126.798 78.1851C127.378 76.3601 128.002 73.4224 128.671 69.3718L132.685 70.3065C132.06 74.6687 131.302 78.0516 130.41 80.4552C129.563 82.8589 128.27 84.7284 126.531 86.0637C124.792 87.3546 122.495 88 119.641 88Z" fill="#00B944"/>
</svg>
