<svg width="72" height="20" viewBox="0 0 72 20" fill="none" xmlns="http://www.w3.org/2000/svg">
<path opacity="0.5" d="M5.312 16.144C4.544 16.144 3.89867 15.9573 3.376 15.584C2.85333 15.2107 2.496 14.6827 2.304 14L2.48 13.968V16H1.28V4.48H2.56V9.744L2.384 9.696C2.58667 9.06667 2.95467 8.576 3.488 8.224C4.032 7.86133 4.67733 7.68 5.424 7.68C6.14933 7.68 6.77867 7.856 7.312 8.208C7.856 8.56 8.27733 9.05067 8.576 9.68C8.87467 10.3093 9.024 11.0453 9.024 11.888C9.024 12.7413 8.86933 13.488 8.56 14.128C8.25067 14.768 7.81867 15.264 7.264 15.616C6.70933 15.968 6.05867 16.144 5.312 16.144ZM5.12 15.024C5.93067 15.024 6.56533 14.7467 7.024 14.192C7.48267 13.6267 7.712 12.8587 7.712 11.888C7.712 10.928 7.48267 10.176 7.024 9.632C6.56533 9.07733 5.93067 8.8 5.12 8.8C4.30933 8.8 3.66933 9.08267 3.2 9.648C2.73067 10.2027 2.496 10.9653 2.496 11.936C2.496 12.8853 2.73067 13.6373 3.2 14.192C3.66933 14.7467 4.30933 15.024 5.12 15.024ZM11.4528 19.28L13.2768 15.04L13.5648 14.592L16.2368 7.84H17.5487L12.8128 19.28H11.4528ZM13.4208 16.08L9.75675 7.84H11.1648L14.3168 15.216L13.4208 16.08Z" fill="black"/>
<g clip-path="url(#clip0_52_2)">
<path d="M23 7.88153L33.3011 6.0213V8.7271L23 10.5873V7.88153Z" fill="#FF391F"/>
<path d="M23 10.525L33.3011 8.66479V11.3706L23 13.2308V10.525Z" fill="#FF6200"/>
<path d="M23 13.1685L33.3011 11.3082V14.014L23 15.8743V13.1685Z" fill="#FF9D00"/>
<mask id="mask0_52_2" style="mask-type:luminance" maskUnits="userSpaceOnUse" x="35" y="5" width="37" height="12">
<path d="M72 5H35.1878V17H72V5Z" fill="white"/>
</mask>
<g mask="url(#mask0_52_2)">
<path d="M39.4381 16.9122C38.5361 16.9122 37.8781 16.7052 37.4642 16.2912C37.0609 15.8664 36.8593 15.2563 36.8593 14.4611V6.48698L38.1328 5.99677V14.4448C38.1328 14.9132 38.2495 15.2563 38.483 15.4742C38.7165 15.6921 39.0985 15.801 39.6292 15.801C39.8414 15.801 40.0218 15.7901 40.1704 15.7683C40.3296 15.7357 40.4569 15.6975 40.5524 15.654V16.7651C40.4463 16.8087 40.2924 16.8414 40.0908 16.8631C39.8998 16.8958 39.6822 16.9122 39.4381 16.9122ZM35.1878 9.54264V8.43149H40.5524V9.54264H35.1878ZM44.1194 16.9285C43.5888 16.9285 43.1165 16.8196 42.7026 16.6017C42.2887 16.3729 41.965 16.057 41.7316 15.654C41.4981 15.24 41.3813 14.7661 41.3813 14.2323V8.43149H42.6548V13.8892C42.6548 14.521 42.8034 14.9949 43.1006 15.3108C43.4083 15.6267 43.8435 15.7847 44.4059 15.7847C44.9153 15.7847 45.3663 15.6649 45.759 15.4252C46.1517 15.1855 46.4594 14.8533 46.6823 14.4284C46.9158 13.9927 47.0325 13.497 47.0325 12.9414L47.2395 14.9186C46.9741 15.5396 46.5602 16.0298 45.9978 16.3893C45.4353 16.7488 44.8092 16.9285 44.1194 16.9285ZM47.1121 16.7651V14.8043H47.0325V8.43149H48.3059V16.7651H47.1121ZM50.2142 16.7651V8.43149H51.4081V10.5557H51.4877V16.7651H50.2142ZM51.4877 12.4186L51.2807 10.4414C51.4717 9.73328 51.8113 9.19405 52.2995 8.82366C52.7878 8.45327 53.3502 8.26809 53.9869 8.26809C54.2523 8.26809 54.4326 8.28986 54.5281 8.33345V9.59166C54.4752 9.56988 54.4008 9.55898 54.3053 9.55898C54.2098 9.54808 54.0931 9.54264 53.9551 9.54264C53.1484 9.54264 52.5331 9.79318 52.1085 10.2943C51.6946 10.7845 51.4877 11.4926 51.4877 12.4186ZM59.5585 16.9122C58.7944 16.9122 58.1524 16.7215 57.6323 16.3403C57.1122 15.959 56.7568 15.4198 56.5657 14.7226L56.7409 14.6899V16.7651H55.5469V5H56.8204V10.376L56.6453 10.327C56.8471 9.68426 57.2132 9.18315 57.7437 8.82366C58.285 8.45327 58.9269 8.26809 59.6699 8.26809C60.3915 8.26809 61.0178 8.44783 61.5483 8.80732C62.0896 9.16681 62.5087 9.66792 62.8059 10.3106C63.1031 10.9534 63.2516 11.705 63.2516 12.5656C63.2516 13.4371 63.0977 14.1997 62.79 14.8533C62.4823 15.5069 62.0525 16.0134 61.5006 16.3729C60.9486 16.7324 60.3014 16.9122 59.5585 16.9122ZM59.3675 15.7683C60.1741 15.7683 60.8054 15.4851 61.2618 14.9186C61.7182 14.3413 61.9463 13.5569 61.9463 12.5656C61.9463 11.5852 61.7182 10.8172 61.2618 10.2616C60.8054 9.69514 60.1741 9.41191 59.3675 9.41191C58.5608 9.41191 57.9241 9.7006 57.4572 10.278C56.9903 10.8444 56.7568 11.6233 56.7568 12.6146C56.7568 13.5842 56.9903 14.3522 57.4572 14.9186C57.9241 15.4851 58.5608 15.7683 59.3675 15.7683ZM67.939 16.9285C67.143 16.9285 66.4426 16.7379 65.8377 16.3566C65.2328 15.9753 64.7604 15.4579 64.4209 14.8043C64.0918 14.1397 63.9274 13.3935 63.9274 12.5656C63.9274 11.7268 64.0971 10.986 64.4368 10.3433C64.7764 9.7006 65.2432 9.19405 65.8377 8.82366C66.4426 8.45327 67.143 8.26809 67.939 8.26809C68.7454 8.26809 69.4458 8.45327 70.0402 8.82366C70.6452 9.19405 71.112 9.7006 71.4411 10.3433C71.7806 10.986 71.9505 11.7268 71.9505 12.5656C71.9505 13.3935 71.7806 14.1397 71.4411 14.8043C71.112 15.4579 70.6452 15.9753 70.0402 16.3566C69.4458 16.7379 68.7454 16.9285 67.939 16.9285ZM67.939 15.8174C68.4907 15.8174 68.9682 15.6812 69.3717 15.4089C69.7749 15.1256 70.088 14.7389 70.3109 14.2487C70.5337 13.7585 70.6452 13.192 70.6452 12.5493C70.6452 11.5906 70.3957 10.8226 69.897 10.2453C69.4087 9.66792 68.7561 9.37923 67.939 9.37923C67.1323 9.37923 66.4797 9.66792 65.981 10.2453C65.482 10.8226 65.2328 11.5906 65.2328 12.5493C65.2328 13.192 65.3442 13.7585 65.5671 14.2487C65.7899 14.7389 66.1028 15.1256 66.5063 15.4089C66.9202 15.6812 67.3977 15.8174 67.939 15.8174Z" fill="black"/>
</g>
</g>
<defs>
<clipPath id="clip0_52_2">
<rect width="49" height="12" fill="white" transform="translate(23 5)"/>
</clipPath>
</defs>
</svg>
